{
	"asset":{
		"generator":"Khronos glTF Blender I/O v3.6.27",
		"version":"2.0"
	},
	"extensionsUsed":[
		"KHR_materials_unlit"
	],
	"scene":0,
	"scenes":[
		{
			"name":"Scene",
			"nodes":[
				4
			]
		}
	],
	"nodes":[
		{
			"mesh":0,
			"name":"Microphone",
			"rotation":[
				-0.1056206002831459,
				0,
				0,
				0.994406521320343
			],
			"translation":[
				-0.000504740048199892,
				0.9471480846405029,
				0.0008986424654722214
			]
		},
		{
			"mesh":1,
			"name":"screws",
			"rotation":[
				0,
				0,
				-0.7071066498756409,
				0.70710688829422
			],
			"scale":[
				0.026367463171482086,
				0.026367463171482086,
				0.026367463171482086
			],
			"translation":[
				0.29691940546035767,
				0.9472434520721436,
				0.001231631264090538
			]
		},
		{
			"mesh":2,
			"name":"Stand",
			"rotation":[
				0,
				0,
				-0.7071066498756409,
				0.70710688829422
			],
			"scale":[
				0.03988850489258766,
				0.03988850489258766,
				0.05786538124084473
			],
			"translation":[
				0.2881489098072052,
				0.9472434520721436,
				0.0005456525832414627
			]
		},
		{
			"mesh":3,
			"name":"Stand 2",
			"scale":[
				0.046193886548280716,
				0.046193886548280716,
				0.046193886548280716
			],
			"translation":[
				0.0012244549579918385,
				0.5085161924362183,
				9.059719741344452e-05
			]
		},
		{
			"children":[
				0,
				1,
				2,
				3
			],
			"mesh":4,
			"name":"Base",
			"rotation":[
				0,
				0.9984605312347412,
				0,
				0.05546670779585838
			],
			"translation":[
				-0.27330124378204346,
				0.05655673146247864,
				-0.0396655797958374
			]
		}
	],
	"materials":[
		{
			"doubleSided":true,
			"extensions":{
				"KHR_materials_unlit":{}
			},
			"name":"Iron guard",
			"pbrMetallicRoughness":{
				"baseColorFactor":[
					0.8000000715255737,
					0.036559682339429855,
					0.07492708414793015,
					1
				],
				"metallicFactor":0,
				"roughnessFactor":0.9
			}
		},
		{
			"doubleSided":true,
			"name":"Metal",
			"pbrMetallicRoughness":{
				"baseColorFactor":[
					0.800000011920929,
					0.800000011920929,
					0.800000011920929,
					1
				],
				"roughnessFactor":0.5
			}
		}
	],
	"meshes":[
		{
			"name":"Cube.002",
			"primitives":[
				{
					"attributes":{
						"POSITION":0,
						"NORMAL":1,
						"TEXCOORD_0":2
					},
					"indices":3,
					"material":0
				},
				{
					"attributes":{
						"POSITION":4,
						"NORMAL":5,
						"TEXCOORD_0":6
					},
					"indices":7,
					"material":1
				}
			]
		},
		{
			"name":"Cylinder.001",
			"primitives":[
				{
					"attributes":{
						"POSITION":8,
						"NORMAL":9,
						"TEXCOORD_0":10
					},
					"indices":11,
					"material":1
				}
			]
		},
		{
			"name":"Plane.001",
			"primitives":[
				{
					"attributes":{
						"POSITION":12,
						"NORMAL":13,
						"TEXCOORD_0":14
					},
					"indices":15,
					"material":1
				}
			]
		},
		{
			"name":"Cylinder.002",
			"primitives":[
				{
					"attributes":{
						"POSITION":16,
						"NORMAL":17,
						"TEXCOORD_0":18
					},
					"indices":19,
					"material":1
				}
			]
		},
		{
			"name":"Cylinder.003",
			"primitives":[
				{
					"attributes":{
						"POSITION":20,
						"NORMAL":21,
						"TEXCOORD_0":22
					},
					"indices":23,
					"material":1
				}
			]
		}
	],
	"accessors":[
		{
			"bufferView":0,
			"componentType":5126,
			"count":210,
			"max":[
				0.24436697363853455,
				0.28285542130470276,
				0.24436697363853455
			],
			"min":[
				-0.24436697363853455,
				-0.28231751918792725,
				-0.24436697363853455
			],
			"type":"VEC3"
		},
		{
			"bufferView":1,
			"componentType":5126,
			"count":210,
			"type":"VEC3"
		},
		{
			"bufferView":2,
			"componentType":5126,
			"count":210,
			"type":"VEC2"
		},
		{
			"bufferView":3,
			"componentType":5123,
			"count":480,
			"type":"SCALAR"
		},
		{
			"bufferView":4,
			"componentType":5126,
			"count":553,
			"max":[
				0.265688419342041,
				0.4171859920024872,
				0.265688419342041
			],
			"min":[
				-0.265688419342041,
				-0.39414820075035095,
				-0.265688419342041
			],
			"type":"VEC3"
		},
		{
			"bufferView":5,
			"componentType":5126,
			"count":553,
			"type":"VEC3"
		},
		{
			"bufferView":6,
			"componentType":5126,
			"count":553,
			"type":"VEC2"
		},
		{
			"bufferView":7,
			"componentType":5123,
			"count":2412,
			"type":"SCALAR"
		},
		{
			"bufferView":8,
			"componentType":5126,
			"count":82,
			"max":[
				0.9510565400123596,
				1,
				0.9451704621315002
			],
			"min":[
				-0.9510564804077148,
				-1,
				-0.9451704621315002
			],
			"type":"VEC3"
		},
		{
			"bufferView":9,
			"componentType":5126,
			"count":82,
			"type":"VEC3"
		},
		{
			"bufferView":10,
			"componentType":5126,
			"count":82,
			"type":"VEC2"
		},
		{
			"bufferView":11,
			"componentType":5123,
			"count":228,
			"type":"SCALAR"
		},
		{
			"bufferView":12,
			"componentType":5126,
			"count":128,
			"max":[
				10.533295631408691,
				0,
				1
			],
			"min":[
				-1,
				-7.291184425354004,
				-1
			],
			"type":"VEC3"
		},
		{
			"bufferView":13,
			"componentType":5126,
			"count":128,
			"type":"VEC3"
		},
		{
			"bufferView":14,
			"componentType":5126,
			"count":128,
			"type":"VEC2"
		},
		{
			"bufferView":15,
			"componentType":5123,
			"count":756,
			"type":"SCALAR"
		},
		{
			"bufferView":16,
			"componentType":5126,
			"count":94,
			"max":[
				0.9945219159126282,
				0.48500627279281616,
				0.9781476259231567
			],
			"min":[
				-0.9945219159126282,
				-11.734086036682129,
				-1
			],
			"type":"VEC3"
		},
		{
			"bufferView":17,
			"componentType":5126,
			"count":94,
			"type":"VEC3"
		},
		{
			"bufferView":18,
			"componentType":5126,
			"count":94,
			"type":"VEC2"
		},
		{
			"bufferView":19,
			"componentType":5123,
			"count":348,
			"type":"SCALAR"
		},
		{
			"bufferView":20,
			"componentType":5126,
			"count":862,
			"max":[
				0.5660196542739868,
				0.03774070739746094,
				0.5660195350646973
			],
			"min":[
				-0.5660208463668823,
				-0.055217444896698,
				-0.5660209655761719
			],
			"type":"VEC3"
		},
		{
			"bufferView":21,
			"componentType":5126,
			"count":862,
			"type":"VEC3"
		},
		{
			"bufferView":22,
			"componentType":5126,
			"count":862,
			"type":"VEC2"
		},
		{
			"bufferView":23,
			"componentType":5123,
			"count":3060,
			"type":"SCALAR"
		}
	],
	"bufferViews":[
		{
			"buffer":0,
			"byteLength":2520,
			"byteOffset":0,
			"target":34962
		},
		{
			"buffer":0,
			"byteLength":2520,
			"byteOffset":2520,
			"target":34962
		},
		{
			"buffer":0,
			"byteLength":1680,
			"byteOffset":5040,
			"target":34962
		},
		{
			"buffer":0,
			"byteLength":960,
			"byteOffset":6720,
			"target":34963
		},
		{
			"buffer":0,
			"byteLength":6636,
			"byteOffset":7680,
			"target":34962
		},
		{
			"buffer":0,
			"byteLength":6636,
			"byteOffset":14316,
			"target":34962
		},
		{
			"buffer":0,
			"byteLength":4424,
			"byteOffset":20952,
			"target":34962
		},
		{
			"buffer":0,
			"byteLength":4824,
			"byteOffset":25376,
			"target":34963
		},
		{
			"buffer":0,
			"byteLength":984,
			"byteOffset":30200,
			"target":34962
		},
		{
			"buffer":0,
			"byteLength":984,
			"byteOffset":31184,
			"target":34962
		},
		{
			"buffer":0,
			"byteLength":656,
			"byteOffset":32168,
			"target":34962
		},
		{
			"buffer":0,
			"byteLength":456,
			"byteOffset":32824,
			"target":34963
		},
		{
			"buffer":0,
			"byteLength":1536,
			"byteOffset":33280,
			"target":34962
		},
		{
			"buffer":0,
			"byteLength":1536,
			"byteOffset":34816,
			"target":34962
		},
		{
			"buffer":0,
			"byteLength":1024,
			"byteOffset":36352,
			"target":34962
		},
		{
			"buffer":0,
			"byteLength":1512,
			"byteOffset":37376,
			"target":34963
		},
		{
			"buffer":0,
			"byteLength":1128,
			"byteOffset":38888,
			"target":34962
		},
		{
			"buffer":0,
			"byteLength":1128,
			"byteOffset":40016,
			"target":34962
		},
		{
			"buffer":0,
			"byteLength":752,
			"byteOffset":41144,
			"target":34962
		},
		{
			"buffer":0,
			"byteLength":696,
			"byteOffset":41896,
			"target":34963
		},
		{
			"buffer":0,
			"byteLength":10344,
			"byteOffset":42592,
			"target":34962
		},
		{
			"buffer":0,
			"byteLength":10344,
			"byteOffset":52936,
			"target":34962
		},
		{
			"buffer":0,
			"byteLength":6896,
			"byteOffset":63280,
			"target":34962
		},
		{
			"buffer":0,
			"byteLength":6120,
			"byteOffset":70176,
			"target":34963
		}
	],
	"buffers":[
		{
			"byteLength":76296,
			"uri":"data:application/octet-stream;base64,"
		}
	]
}
